<?xml version="1.0" standalone="no"?>
<!DOCTYPE svg PUBLIC "-//W3C//DTD SVG 20010904//EN"
 "http://www.w3.org/TR/2001/REC-SVG-20010904/DTD/svg10.dtd">
<svg version="1.0" xmlns="http://www.w3.org/2000/svg"
 width="1024.000000pt" height="1024.000000pt" viewBox="0 0 1024.000000 1024.000000"
 preserveAspectRatio="xMidYMid meet">
<metadata>
Created by potrace 1.14, written by Peter Selinger 2001-2017
</metadata>
<g transform="translate(0.000000,1024.000000) scale(0.100000,-0.100000)"
fill="#000000" stroke="none">
<path d="M4970 9924 c0 -6 -21 -12 -47 -13 -88 -4 -131 -9 -142 -15 -6 -4 -11
-1 -11 6 0 8 -3 9 -8 3 -4 -5 -20 -11 -37 -12 -73 -5 -90 -8 -97 -18 -5 -6 -8
-5 -8 3 0 9 -5 10 -17 4 -10 -5 -34 -9 -53 -11 -19 -1 -36 -5 -37 -9 -2 -4
-21 -7 -43 -6 -22 0 -40 -3 -40 -7 0 -4 -9 -6 -20 -4 -11 2 -22 0 -25 -6 -4
-5 -19 -9 -34 -9 -15 0 -33 -6 -40 -12 -11 -11 -12 -10 -6 2 7 12 6 13 -6 4
-8 -6 -21 -12 -29 -13 -27 -2 -55 -8 -74 -16 -10 -4 -31 -8 -46 -9 -15 -1 -26
-4 -23 -8 2 -5 -4 -8 -14 -8 -11 0 -25 -6 -32 -12 -11 -10 -12 -10 -7 -1 5 9
2 11 -8 7 -9 -3 -16 -10 -16 -14 0 -5 -10 -6 -22 -2 -13 3 -19 1 -15 -6 4 -6
0 -9 -10 -7 -10 1 -24 -2 -30 -8 -7 -5 -13 -7 -13 -3 0 4 -10 0 -22 -8 -13 -7
-31 -12 -41 -11 -10 2 -14 -1 -10 -8 4 -6 0 -8 -10 -4 -10 3 -17 2 -17 -4 0
-6 -4 -8 -9 -4 -5 3 -16 -1 -24 -9 -8 -8 -17 -12 -21 -9 -3 3 -12 1 -19 -5 -8
-7 -17 -9 -20 -5 -4 3 -7 1 -7 -6 0 -7 -4 -10 -9 -6 -5 3 -12 1 -16 -5 -4 -6
-11 -8 -16 -5 -5 4 -9 1 -9 -5 0 -6 -4 -9 -9 -5 -5 3 -12 1 -16 -5 -3 -5 -15
-10 -26 -10 -10 0 -19 -5 -19 -11 0 -5 -4 -7 -10 -4 -5 3 -10 1 -10 -4 0 -6
-3 -10 -7 -9 -5 2 -33 -9 -63 -23 -30 -14 -72 -34 -92 -43 -21 -9 -38 -22 -38
-29 0 -7 -4 -6 -10 3 -8 12 -10 12 -15 -2 -4 -9 -20 -20 -36 -23 -16 -4 -29
-10 -29 -15 0 -8 -44 -27 -46 -19 0 2 -11 -8 -25 -22 -13 -14 -30 -24 -36 -22
-7 3 -16 -2 -19 -11 -3 -9 -10 -14 -14 -11 -5 3 -11 1 -15 -5 -4 -6 -12 -7
-18 -4 -7 4 -9 4 -5 -1 7 -7 -74 -65 -91 -65 -5 0 -12 -7 -15 -16 -3 -8 -10
-13 -14 -10 -5 3 -23 -8 -41 -24 -18 -17 -34 -30 -37 -30 -8 0 -68 -44 -86
-64 -10 -10 -18 -15 -18 -11 0 5 -9 -1 -20 -13 -12 -12 -25 -22 -31 -22 -6 0
-7 -4 -4 -10 3 -5 -1 -10 -10 -10 -8 0 -23 -9 -32 -19 -9 -11 -21 -17 -26 -14
-6 4 -7 1 -3 -6 5 -8 1 -14 -12 -18 -11 -3 -23 -12 -26 -20 -3 -8 -10 -11 -16
-8 -5 3 -10 1 -10 -4 0 -6 -9 -20 -20 -31 -11 -11 -20 -17 -20 -14 0 3 -19
-13 -42 -35 -22 -23 -45 -41 -50 -41 -4 0 -8 -5 -8 -12 0 -13 -81 -84 -92 -81
-4 2 -4 -5 -1 -14 4 -11 3 -14 -5 -9 -7 4 -12 3 -12 -1 0 -14 -57 -72 -64 -66
-3 4 -6 1 -6 -5 0 -6 -11 -23 -25 -37 -14 -14 -24 -25 -21 -25 3 0 -9 -15 -27
-33 -18 -19 -43 -48 -57 -66 -14 -18 -35 -44 -48 -57 -13 -13 -20 -24 -16 -24
5 0 1 -6 -7 -12 -24 -20 -79 -95 -79 -108 0 -6 -4 -8 -10 -5 -5 3 -10 -1 -10
-9 0 -9 -5 -16 -12 -16 -6 0 -9 -3 -5 -6 3 -4 1 -12 -6 -20 -30 -34 -37 -44
-30 -44 4 0 0 -5 -10 -11 -9 -6 -15 -14 -12 -20 4 -5 2 -9 -2 -9 -8 0 -68 -94
-102 -158 -8 -15 -17 -29 -21 -32 -8 -6 -23 -44 -18 -47 2 -1 -6 -9 -17 -18
-11 -9 -13 -14 -5 -10 12 5 12 4 -1 -7 -8 -7 -22 -27 -29 -45 -8 -17 -17 -30
-21 -27 -4 2 -5 -5 -2 -16 3 -12 0 -20 -6 -20 -7 0 -9 -4 -6 -10 3 -5 -1 -10
-9 -10 -9 0 -13 -6 -10 -14 3 -7 -2 -21 -11 -30 -9 -9 -15 -23 -12 -31 3 -7 2
-15 -3 -17 -5 -2 -10 -10 -12 -18 -2 -8 -9 -21 -16 -28 -7 -8 -10 -17 -7 -22
3 -4 -2 -10 -10 -13 -8 -4 -12 -15 -10 -27 2 -11 0 -20 -6 -20 -5 0 -9 -9 -9
-21 0 -11 -4 -17 -10 -14 -5 3 -7 0 -4 -8 3 -8 0 -18 -5 -22 -6 -3 -9 -11 -6
-16 4 -5 1 -9 -5 -9 -6 0 -9 -4 -5 -9 3 -5 1 -12 -5 -16 -6 -4 -8 -11 -5 -16
4 -5 1 -9 -6 -9 -7 0 -9 -3 -6 -7 4 -3 2 -12 -5 -20 -6 -7 -8 -16 -4 -20 3 -3
-2 -15 -11 -26 -10 -11 -12 -17 -4 -12 9 5 7 -1 -4 -19 -10 -14 -14 -26 -10
-26 4 0 2 -7 -5 -15 -7 -8 -9 -15 -5 -15 4 0 2 -7 -5 -15 -7 -8 -9 -15 -5 -15
4 0 2 -7 -5 -15 -7 -8 -9 -15 -4 -15 4 0 3 -5 -3 -11 -6 -6 -9 -18 -6 -25 3
-8 0 -14 -5 -14 -6 0 -11 -8 -11 -17 -1 -40 -8 -65 -20 -73 -10 -6 -11 -8 -1
-12 10 -3 9 -8 -3 -19 -10 -11 -12 -20 -5 -32 6 -12 5 -17 -3 -17 -6 0 -9 -7
-5 -15 3 -8 2 -15 -3 -15 -4 0 -8 -6 -8 -12 -2 -37 -16 -95 -26 -107 -10 -12
-9 -13 3 -6 12 7 13 6 3 -7 -7 -8 -10 -18 -6 -22 4 -4 1 -11 -7 -16 -10 -6
-11 -10 -3 -10 7 0 10 -7 7 -15 -4 -8 -11 -12 -18 -8 -8 4 -8 3 0 -6 8 -9 9
-24 3 -44 -8 -32 -19 -116 -22 -169 -1 -16 -6 -28 -12 -28 -5 0 -3 -5 5 -10 8
-5 10 -10 4 -10 -7 0 -10 -13 -9 -32 2 -18 -2 -36 -8 -40 -8 -5 -7 -11 1 -21
7 -7 9 -17 5 -21 -4 -4 -8 -37 -10 -74 -3 -79 -5 -345 -3 -352 0 -3 2 -47 3
-97 1 -51 4 -93 7 -93 7 0 5 -59 -2 -66 -4 -3 -1 -16 6 -29 7 -13 11 -37 10
-54 -1 -18 3 -31 9 -31 7 0 5 -5 -3 -10 -8 -5 -10 -10 -4 -10 5 0 10 -10 10
-22 0 -13 4 -43 7 -68 4 -25 8 -54 9 -65 2 -11 8 -23 13 -27 6 -5 4 -8 -4 -8
-11 0 -10 -4 5 -16 10 -8 13 -13 7 -9 -8 4 -13 0 -13 -9 0 -9 5 -16 11 -16 6
0 8 -9 4 -20 -4 -11 -2 -20 4 -20 6 0 11 -5 11 -11 0 -5 -6 -7 -12 -3 -9 6 -9
3 0 -9 8 -9 11 -21 7 -27 -3 -5 -1 -10 6 -10 7 0 9 -3 6 -7 -4 -3 -2 -12 4
-20 9 -10 8 -13 -1 -13 -9 0 -10 -3 -1 -13 6 -8 8 -17 4 -20 -3 -4 -1 -7 5 -7
6 0 11 -9 11 -20 1 -11 1 -29 2 -40 0 -11 5 -20 10 -20 6 0 8 -4 5 -8 -3 -5 1
-21 9 -36 10 -18 10 -24 2 -19 -7 4 -7 0 2 -10 7 -9 10 -17 6 -17 -4 0 -2 -6
4 -13 6 -8 8 -17 4 -20 -3 -4 -1 -7 6 -7 7 0 10 -4 7 -9 -4 -5 -1 -22 6 -38 6
-15 12 -30 13 -33 1 -3 7 -24 14 -47 6 -24 17 -43 24 -43 7 0 6 -4 -3 -10 -11
-7 -11 -10 -2 -10 7 0 11 -4 7 -9 -3 -5 2 -17 11 -25 8 -9 13 -16 9 -16 -3 0
1 -13 9 -29 9 -16 12 -31 9 -35 -4 -3 -1 -6 6 -6 7 0 10 -4 6 -9 -3 -5 -1 -12
4 -16 6 -3 8 -12 5 -19 -3 -7 2 -19 11 -26 8 -7 15 -19 15 -27 0 -9 5 -11 13
-7 8 5 8 2 -2 -9 -9 -11 -10 -17 -2 -17 6 0 11 -6 11 -14 0 -8 6 -21 13 -28 7
-7 14 -17 15 -23 5 -26 14 -45 21 -45 4 0 8 -7 9 -15 1 -8 3 -22 4 -30 1 -8 5
-12 10 -9 4 3 8 -2 8 -10 0 -9 4 -16 10 -16 5 0 9 -3 8 -7 -4 -12 26 -73 34
-73 5 0 8 -7 8 -15 0 -8 5 -15 11 -15 5 0 8 -4 4 -9 -3 -5 0 -15 7 -23 7 -7
20 -26 28 -43 8 -16 17 -32 20 -35 9 -7 64 -104 63 -110 0 -3 8 -11 19 -18 10
-7 16 -18 13 -23 -4 -5 -1 -9 4 -9 6 0 11 -5 11 -10 0 -6 9 -20 20 -32 11 -12
20 -31 20 -42 0 -17 2 -18 10 -6 8 13 10 12 10 -2 0 -10 5 -18 11 -18 5 0 8
-4 4 -9 -3 -6 0 -13 8 -18 19 -12 80 -93 70 -94 -4 0 0 -4 10 -8 10 -4 19 -11
19 -16 0 -6 11 -20 25 -32 13 -13 21 -23 18 -23 -3 0 6 -12 20 -26 14 -14 33
-36 41 -50 9 -13 20 -21 25 -18 5 3 9 -2 9 -10 0 -9 5 -16 10 -16 6 0 10 -5
10 -11 0 -6 20 -31 45 -57 25 -25 45 -50 45 -54 0 -4 7 -8 15 -8 8 0 15 -4 15
-8 0 -5 41 -50 90 -102 50 -52 90 -98 90 -102 0 -5 5 -6 12 -2 8 5 9 2 5 -9
-3 -9 -3 -16 1 -14 10 3 82 -69 82 -82 0 -5 9 -13 20 -16 11 -3 20 -9 20 -13
0 -15 47 -61 55 -54 5 4 5 2 2 -4 -8 -13 27 -57 37 -47 3 3 6 1 6 -6 0 -7 18
-30 41 -52 22 -21 37 -39 32 -40 -4 0 2 -4 15 -9 12 -5 25 -18 29 -27 4 -10
13 -22 20 -26 7 -5 10 -13 7 -19 -4 -6 -3 -8 3 -5 5 3 15 -3 23 -13 8 -10 17
-17 22 -14 4 3 5 -3 1 -12 -4 -11 -2 -15 4 -11 5 4 15 -5 22 -20 6 -14 14 -23
18 -20 7 8 33 -18 33 -33 0 -6 7 -13 15 -16 8 -4 15 -12 15 -20 0 -13 13 -19
35 -14 5 1 7 -2 3 -5 -10 -10 42 -76 53 -69 5 3 9 -4 9 -16 0 -12 4 -19 8 -16
5 3 15 -6 22 -19 7 -14 19 -25 27 -25 12 0 17 -13 14 -32 0 -5 3 -8 9 -8 17 0
49 -33 43 -44 -3 -6 -3 -8 2 -4 9 8 35 -15 35 -32 0 -6 5 -8 10 -5 6 3 10 -1
10 -10 0 -9 9 -19 20 -22 11 -3 17 -9 14 -14 -3 -5 0 -9 7 -9 7 0 9 -3 6 -7
-4 -3 7 -14 23 -25 17 -10 29 -23 28 -30 -2 -7 3 -12 10 -10 6 1 12 -4 12 -11
0 -7 9 -19 20 -27 11 -8 20 -21 20 -29 0 -8 3 -11 6 -8 4 4 19 -9 34 -28 15
-19 30 -32 34 -28 3 3 6 -1 6 -10 0 -8 9 -19 20 -22 11 -3 20 -13 20 -21 0 -7
9 -19 20 -26 11 -7 20 -17 20 -22 0 -6 23 -31 50 -57 27 -26 50 -50 50 -54 0
-10 74 -81 91 -88 10 -4 10 -6 1 -6 -8 -1 -4 -10 10 -25 13 -13 26 -21 31 -19
4 2 7 -2 7 -9 0 -7 9 -19 20 -26 12 -7 18 -17 15 -23 -4 -5 -1 -8 7 -7 7 2 12
-3 10 -9 -1 -7 4 -13 12 -13 8 0 18 -9 21 -20 3 -11 13 -20 21 -20 8 0 14 -4
14 -9 0 -4 16 -25 35 -45 19 -21 33 -42 29 -47 -3 -5 -2 -9 3 -8 19 3 33 -2
33 -12 0 -6 18 -28 40 -49 22 -21 40 -41 40 -44 0 -10 39 -46 50 -46 6 0 10
-10 10 -22 0 -12 3 -19 6 -15 11 10 36 -22 28 -35 -5 -8 0 -7 11 2 11 9 16 10
11 2 -4 -7 -1 -15 8 -18 9 -3 16 -13 16 -21 0 -8 4 -12 9 -9 5 3 11 -4 14 -15
3 -12 10 -18 17 -14 6 4 9 1 8 -7 -2 -7 3 -12 10 -10 11 2 16 -10 13 -30 0 -5
6 -8 14 -8 8 0 15 -7 15 -17 0 -9 3 -14 6 -10 7 6 34 -16 34 -28 0 -4 20 -27
46 -51 27 -27 42 -49 38 -57 -4 -6 -4 -9 1 -5 4 4 16 -2 26 -14 11 -11 19 -17
19 -12 0 5 6 -2 13 -16 8 -14 19 -24 26 -22 7 1 10 -2 7 -7 -8 -12 18 -33 29
-23 5 4 5 1 1 -5 -4 -7 -2 -13 4 -13 6 0 8 -5 4 -12 -5 -7 -2 -9 8 -5 10 3 15
0 14 -11 0 -9 5 -16 12 -14 6 1 12 -7 12 -18 0 -11 4 -20 8 -20 10 0 87 -72
85 -80 -1 -3 3 -4 8 -2 5 1 9 -8 9 -20 0 -19 2 -20 10 -8 8 13 10 13 10 -2 0
-9 6 -21 14 -25 7 -4 21 -21 30 -38 10 -16 15 -22 12 -12 -3 11 -2 15 4 12 6
-3 10 -11 10 -16 0 -6 11 -20 25 -33 13 -13 22 -25 19 -28 -2 -3 6 -8 20 -10
16 -3 27 0 31 10 3 8 12 12 21 8 8 -3 12 -2 9 4 -3 6 -1 10 4 10 6 0 11 7 11
16 0 8 5 12 10 9 6 -3 10 -2 10 3 0 13 137 152 149 152 6 0 7 7 4 17 -4 11 -3
14 5 9 11 -7 17 6 13 27 -1 5 3 6 9 2 5 -3 13 1 16 9 3 9 13 16 21 16 8 0 12
4 9 9 -3 5 6 16 19 25 14 9 23 21 20 26 -3 6 1 7 10 4 9 -4 15 -3 13 2 -2 5
25 37 60 72 34 34 62 67 62 74 0 6 3 9 6 5 7 -6 34 17 34 29 0 3 22 28 49 54
27 27 47 50 45 53 -3 3 4 8 15 12 12 3 21 13 21 21 0 8 6 13 13 12 6 -2 11 3
9 10 -1 6 5 12 14 12 8 0 13 3 11 8 -5 9 30 42 37 35 6 -6 10 12 7 30 0 4 3 6
7 5 5 -2 23 11 39 29 17 18 34 29 38 25 5 -4 6 -2 2 3 -6 11 15 45 30 48 4 1
7 7 7 14 -1 6 5 9 12 6 9 -3 14 1 14 12 0 9 5 13 10 10 6 -3 10 -2 10 4 0 18
51 62 63 54 7 -4 5 2 -3 12 -8 10 -10 16 -4 13 5 -4 18 4 28 17 10 14 24 22
30 18 6 -3 8 -3 4 2 -4 4 4 16 17 27 14 11 25 26 25 34 0 8 4 13 9 10 9 -6 26
22 22 37 -1 5 3 6 8 3 5 -4 16 3 24 14 7 11 17 17 20 13 4 -3 7 1 7 10 0 8 9
19 20 22 11 4 18 11 15 16 -4 5 -1 9 6 9 7 0 9 3 6 7 -8 7 34 39 46 35 4 -1 7
5 7 13 0 8 5 15 10 15 6 0 9 5 8 12 -2 7 3 12 10 13 6 0 11 4 10 8 -2 5 8 15
22 22 14 8 21 14 17 15 -13 0 20 30 34 30 7 0 10 3 7 6 -8 7 105 122 115 117
4 -3 7 -1 6 4 -3 20 2 34 11 28 9 -6 14 7 11 27 0 4 7 4 17 1 9 -3 14 -3 11 1
-4 4 27 41 67 82 41 41 74 80 74 85 0 6 3 8 8 6 4 -3 13 1 20 9 7 8 10 14 7
14 -3 0 4 9 15 20 11 11 25 20 31 20 5 0 8 4 5 9 -3 5 1 12 10 15 8 3 12 11 9
16 -4 6 -3 10 2 9 23 -4 32 2 26 18 -4 11 -3 14 6 9 8 -5 14 -1 18 13 3 11 9
18 14 15 5 -3 9 3 9 12 0 10 3 15 6 11 8 -8 34 18 34 33 0 6 5 8 10 5 9 -6 14
8 11 28 0 4 2 6 6 6 23 -4 35 3 29 16 -3 8 -2 14 2 12 9 -3 58 46 54 56 -1 4
7 7 19 7 11 0 17 5 14 10 -3 6 1 10 11 10 14 0 14 3 4 16 -8 8 -9 14 -4 13 17
-4 44 13 44 28 0 8 5 11 10 8 6 -3 10 1 10 10 0 9 5 13 10 10 9 -6 14 8 11 28
-1 5 3 6 8 3 13 -8 43 23 35 36 -4 6 -2 8 3 5 13 -8 36 17 25 28 -4 5 -2 5 4
2 7 -4 19 5 28 18 9 14 21 23 26 20 6 -4 7 2 3 12 -3 10 -3 15 1 11 9 -7 52
33 48 45 -1 4 5 7 14 7 8 0 12 5 9 10 -3 6 1 10 10 10 9 0 14 3 12 7 -6 10 19
34 27 26 3 -4 6 1 6 11 0 9 5 14 10 11 6 -3 10 3 10 14 0 12 3 20 8 19 4 -2
28 18 54 44 26 27 44 48 40 49 -4 0 1 4 11 8 10 4 19 11 19 16 1 6 15 20 32
33 17 13 30 28 28 33 -1 5 2 9 6 9 14 0 57 41 54 51 -1 5 2 9 8 9 9 0 205 192
212 208 2 4 6 6 10 5 5 -2 7 0 5 5 -2 9 16 32 55 69 15 14 25 30 22 34 -3 5 0
9 6 9 5 0 19 15 30 33 11 17 20 28 20 22 0 -5 10 6 21 25 12 19 30 42 40 51
11 9 19 21 19 28 0 6 4 11 9 11 5 0 13 9 16 20 4 11 11 17 17 14 6 -4 8 -2 4
4 -3 6 1 17 9 25 8 9 15 19 15 22 0 14 38 54 45 47 3 -4 6 -2 5 3 -5 21 0 36
10 30 6 -4 9 -3 8 2 -3 11 32 76 46 85 6 4 11 12 11 18 0 6 5 14 11 18 12 8
28 43 26 55 -1 4 3 7 8 7 6 0 10 7 10 16 0 9 5 12 12 8 6 -4 8 -3 4 4 -3 6 1
18 10 26 8 9 12 16 8 16 -3 0 -1 7 6 15 7 8 9 15 4 15 -4 0 0 6 10 13 9 7 18
20 19 29 2 9 7 22 13 29 5 8 19 33 30 56 10 24 22 43 26 43 4 0 4 7 1 17 -4
11 -3 14 5 9 8 -5 12 0 12 13 0 31 2 35 19 48 9 6 16 17 17 25 0 7 2 21 2 31
1 11 7 15 14 11 8 -5 9 -2 5 9 -4 10 -2 17 4 17 6 0 9 7 5 15 -3 8 -1 15 5 15
6 0 7 5 4 10 -3 6 -2 10 2 10 5 0 9 10 10 22 1 12 9 25 17 30 8 5 13 14 10 22
-3 7 2 18 10 25 7 6 12 20 9 30 -3 10 0 22 6 25 6 4 11 18 11 32 0 13 5 24 12
24 6 0 9 3 5 6 -3 3 -1 18 5 33 11 29 19 60 20 79 1 6 5 12 9 12 4 0 6 9 4 20
-2 11 0 20 4 20 4 0 8 6 9 13 2 23 8 46 14 53 4 3 4 12 1 20 -3 8 0 14 7 14 6
0 10 6 7 13 -2 6 -1 21 4 33 4 11 10 38 13 58 3 21 11 46 16 56 7 13 7 21 0
25 -8 5 -8 11 -1 19 6 7 13 23 15 37 3 13 5 24 6 24 1 0 3 18 5 41 5 55 8 68
19 76 6 4 4 13 -3 22 -8 9 -9 16 -3 16 6 0 9 11 7 25 -1 14 3 25 9 25 6 0 4 5
-4 10 -8 5 -10 10 -4 10 6 0 11 6 11 13 1 6 4 55 8 107 4 52 8 102 8 110 0 8
4 21 10 28 6 8 6 12 -2 12 -8 0 -9 5 -2 18 5 10 6 24 1 32 -5 8 -5 21 -1 29 3
9 6 32 6 51 -1 19 3 41 9 49 8 11 8 13 -1 7 -17 -9 -17 6 0 23 8 10 8 12 0 7
-15 -8 -27 10 -16 27 11 18 11 97 0 97 -5 0 -4 6 2 14 8 10 9 16 1 21 -7 4 -7
12 0 24 5 10 6 21 3 25 -4 4 -8 21 -9 39 -3 61 -15 182 -21 227 -3 25 -6 60
-6 78 0 17 -3 32 -7 32 -5 0 -10 36 -13 88 0 6 -3 12 -7 12 -3 0 -6 12 -7 28
-1 37 -8 74 -18 95 -4 10 -5 20 -2 24 4 3 0 18 -8 32 -7 15 -13 34 -12 41 3
25 -26 120 -36 120 -5 0 -4 7 3 15 7 8 8 15 3 15 -5 0 -10 7 -11 15 -1 8 -3
22 -4 30 -1 8 -6 15 -11 15 -5 0 -7 7 -3 15 3 8 1 15 -4 15 -6 0 -9 3 -8 8 4
14 -14 72 -22 72 -4 0 -7 8 -5 18 1 9 -4 29 -11 44 -8 15 -15 37 -17 48 -2 12
-8 25 -14 28 -6 4 -9 15 -7 25 1 9 -7 24 -19 33 -18 14 -19 15 -3 10 16 -5 17
-4 6 9 -7 8 -9 15 -4 15 5 0 1 5 -9 11 -9 6 -15 14 -12 19 3 5 1 11 -5 15 -5
3 -10 15 -10 26 0 10 -5 19 -11 19 -5 0 -7 5 -4 10 3 6 1 10 -5 10 -7 0 -10 6
-7 14 3 8 1 16 -4 18 -5 2 -11 13 -12 26 0 12 -8 22 -16 22 -8 0 -11 3 -8 7 4
3 1 13 -6 21 -10 13 -9 15 3 8 8 -4 6 0 -4 8 -11 9 -16 16 -10 16 5 0 3 4 -4
9 -7 4 -14 17 -15 29 0 12 -7 24 -15 27 -7 3 -10 9 -7 15 3 5 1 10 -4 10 -6 0
-11 9 -11 20 0 11 -5 20 -11 20 -6 0 -8 7 -5 16 3 8 2 12 -3 9 -10 -5 -23 23
-18 38 1 5 -6 13 -16 18 -9 6 -15 14 -12 20 4 5 1 9 -4 9 -6 0 -11 7 -11 16 0
8 -4 12 -10 9 -6 -3 -10 4 -10 16 0 12 -7 27 -14 33 -8 6 -16 18 -18 26 -2 8
-12 23 -22 33 -10 9 -16 17 -12 17 4 0 -2 9 -12 20 -10 11 -25 33 -33 48 -8
15 -20 31 -27 35 -7 5 -10 12 -7 18 4 5 -2 9 -11 9 -10 0 -15 3 -11 6 8 9 -51
94 -65 94 -6 0 -9 3 -6 6 3 3 -7 19 -23 36 -15 17 -25 36 -22 41 3 6 1 7 -5 3
-7 -4 -12 -4 -12 1 0 8 -26 41 -86 106 -18 21 -34 40 -34 43 0 4 -24 30 -54
59 -30 30 -52 56 -48 59 3 3 -2 6 -11 6 -8 0 -19 9 -22 20 -3 11 -13 20 -21
20 -8 0 -13 4 -9 9 3 5 -4 12 -15 16 -11 3 -20 14 -20 22 0 9 -3 14 -6 11 -3
-4 -29 17 -58 45 -29 29 -75 70 -101 92 -26 22 -58 50 -71 63 -13 12 -28 22
-33 22 -5 0 -17 10 -25 22 -9 12 -16 19 -16 16 0 -4 -14 6 -32 22 -17 16 -34
27 -37 25 -2 -3 -10 4 -18 15 -8 11 -19 20 -24 20 -10 0 -24 10 -59 42 -10 9
-33 24 -49 33 -17 8 -31 21 -31 27 0 6 -3 8 -6 5 -4 -4 -19 1 -33 11 -14 10
-38 24 -53 32 -16 7 -28 20 -28 27 0 8 -4 12 -9 8 -5 -3 -47 17 -93 45 -46 27
-89 50 -95 50 -7 0 -13 5 -13 10 0 6 -9 10 -20 10 -11 0 -20 5 -20 10 0 6 -8
10 -18 10 -10 0 -27 8 -38 18 -10 9 -28 19 -39 20 -10 2 -25 11 -33 20 -9 12
-11 12 -6 2 7 -13 5 -13 -9 -2 -9 8 -21 11 -27 7 -5 -3 -10 -1 -10 4 0 6 -7
11 -15 11 -8 0 -15 5 -15 10 0 6 -3 9 -7 9 -20 -3 -34 2 -29 10 3 5 0 9 -7 8
-34 -1 -48 4 -41 15 5 7 2 9 -8 5 -9 -3 -26 0 -40 7 -13 7 -29 11 -36 8 -6 -2
-12 1 -12 7 0 12 -69 33 -83 24 -6 -3 -7 -1 -3 5 5 8 -2 12 -19 12 -14 0 -24
4 -21 8 2 4 -7 9 -22 10 -14 1 -28 5 -31 10 -3 4 -17 8 -31 10 -13 1 -28 8
-32 15 -6 9 -8 8 -8 -3 0 -10 -3 -11 -8 -3 -4 6 -22 13 -40 16 -18 3 -40 11
-49 19 -12 9 -15 9 -9 1 5 -9 2 -11 -8 -7 -9 3 -16 11 -16 18 0 6 -5 4 -10 -4
-7 -12 -10 -12 -10 -1 0 7 -6 11 -15 8 -8 -4 -17 -2 -19 2 -3 5 -17 7 -31 6
-14 -2 -25 1 -25 7 0 6 -7 8 -15 4 -8 -3 -15 -1 -15 4 0 5 -7 7 -15 4 -9 -4
-15 0 -15 7 0 11 -3 11 -10 -1 -7 -11 -10 -11 -10 -2 0 7 -4 11 -9 8 -5 -4
-12 0 -14 6 -4 9 -6 9 -6 2 -1 -9 -12 -9 -38 -2 -21 5 -47 10 -58 11 -11 1
-23 7 -27 12 -5 6 -8 5 -8 -3 0 -9 -5 -10 -19 -3 -10 6 -21 7 -25 4 -3 -3 -6
0 -6 8 0 11 -2 11 -10 -1 -5 -8 -10 -10 -10 -5 0 6 -20 12 -44 12 -25 1 -54 7
-66 13 -15 8 -20 8 -16 1 8 -12 -6 -15 -18 -4 -3 4 -34 8 -69 10 -34 2 -78 4
-97 5 -19 1 -38 6 -42 12 -5 7 -8 6 -8 -3 0 -11 -3 -11 -15 -1 -12 10 -15 10
-15 0 0 -10 -3 -10 -15 0 -12 10 -15 10 -15 0 0 -10 -3 -10 -15 0 -12 10 -15
10 -15 0 0 -9 -4 -9 -13 -2 -8 7 -18 7 -27 2 -9 -5 -19 -5 -27 2 -10 8 -13 7
-13 -3 0 -12 -2 -12 -9 -1 -4 8 -12 14 -16 14 -4 0 -12 -6 -16 -14 -5 -7 -9
-8 -9 -2 0 6 -7 11 -15 11 -8 0 -15 -5 -15 -11 0 -6 -4 -5 -9 3 -7 11 -13 12
-23 3 -11 -9 -17 -9 -26 0 -9 9 -12 9 -12 -2 0 -13 -2 -13 -10 0 -9 13 -10 13
-10 0 0 -13 -1 -13 -10 0 -8 12 -10 12 -10 1 0 -10 -3 -11 -14 -2 -11 9 -16 9
-21 0 -6 -8 -10 -7 -16 2 -5 8 -9 9 -9 3z m1230 -8368 c0 -2 -8 -10 -17 -17
-16 -13 -17 -12 -4 4 13 16 21 21 21 13z"/>
</g>
</svg>
